HIERARCHY
ROOT Hips
{
    OFFSET   0.000000   0.000000   0.000000
    CHANNELS 6 Xposition Yposition Zposition Zrotation Xrotation Yrotation
    JOINT Chest
    {
        OFFSET   0.000000   8.007230   0.000000
        CHANNELS 3 Zrotation Xrotation Yrotation
        JOINT Chest2
        {
            OFFSET   0.000000  22.077100   0.000000
            CHANNELS 3 Zrotation Xrotation Yrotation
            JOINT Neck
            {
                OFFSET   0.000000  23.254800  -0.000021
                CHANNELS 3 Zrotation Xrotation Yrotation
                JOINT Head
                {
                    OFFSET   0.000000  14.370000   1.956610
                    CHANNELS 3 Zrotation Xrotation Yrotation
                    End Site
                    {
                        OFFSET   0.000000  19.566000   0.000000
                    }
                }
            }
            JOINT LeftCollar
            {
                OFFSET   3.911900  19.017000  -0.467063
                CHANNELS 3 Zrotation Xrotation Yrotation
                JOINT LeftShoulder
                {
                    OFFSET  10.383700   0.000000   0.000000
                    CHANNELS 3 Zrotation Xrotation Yrotation
                    JOINT LeftElbow
                    {
                        OFFSET  26.662100   0.001529   0.000325
                        CHANNELS 3 Zrotation Xrotation Yrotation
                        JOINT LeftWrist
                        {
                            OFFSET  28.869000  -0.000011  -0.000096
                            CHANNELS 3 Zrotation Xrotation Yrotation
                            JOINT LeftFinger0
                            {
                                OFFSET   2.044650  -2.323460   3.252850
                                CHANNELS 3 Zrotation Xrotation Yrotation
                                JOINT LeftFinger01
                                {
                                    OFFSET   3.088130   0.000000   0.000000
                                    CHANNELS 3 Zrotation Xrotation Yrotation
                                    JOINT LeftFinger02
                                    {
                                        OFFSET   2.639460   0.000000   0.000000
                                        CHANNELS 3 Zrotation Xrotation Yrotation
                                        End Site
                                        {
                                            OFFSET   2.582190   0.000000   0.000000
                                        }
                                    }
                                }
                            }
                            JOINT LeftFinger1
                            {
                                OFFSET   8.364480   0.000000   3.252850
                                CHANNELS 3 Zrotation Xrotation Yrotation
                                JOINT LeftFinger11
                                {
                                    OFFSET   4.646930   0.000000   0.000000
                                    CHANNELS 3 Zrotation Xrotation Yrotation
                                    JOINT LeftFinger12
                                    {
                                        OFFSET   2.323460   0.000000   0.000000
                                        CHANNELS 3 Zrotation Xrotation Yrotation
                                        End Site
                                        {
                                            OFFSET   2.273050   0.000000   0.000000
                                        }
                                    }
                                }
                            }
                            JOINT LeftFinger2
                            {
                                OFFSET   8.364480   0.000016   1.078090
                                CHANNELS 3 Zrotation Xrotation Yrotation
                                JOINT LeftFinger21
                                {
                                    OFFSET   5.111620   0.000000   0.000000
                                    CHANNELS 3 Zrotation Xrotation Yrotation
                                    JOINT LeftFinger22
                                    {
                                        OFFSET   2.788160   0.000017   0.000000
                                        CHANNELS 3 Zrotation Xrotation Yrotation
                                        End Site
                                        {
                                            OFFSET   2.727660   0.000000   0.000000
                                        }
                                    }
                                }
                            }
                            JOINT LeftFinger3
                            {
                                OFFSET   7.899780   0.000015  -1.078090
                                CHANNELS 3 Zrotation Xrotation Yrotation
                                JOINT LeftFinger31
                                {
                                    OFFSET   4.646920   0.000000   0.000000
                                    CHANNELS 3 Zrotation Xrotation Yrotation
                                    JOINT LeftFinger32
                                    {
                                        OFFSET   2.323470   0.000000   0.000000
                                        CHANNELS 3 Zrotation Xrotation Yrotation
                                        End Site
                                        {
                                            OFFSET   2.273050   0.000000   0.000000
                                        }
                                    }
                                }
                            }
                            JOINT LeftFinger4
                            {
                                OFFSET   7.435090   0.000000  -3.252850
                                CHANNELS 3 Zrotation Xrotation Yrotation
                                JOINT LeftFinger41
                                {
                                    OFFSET   3.717550   0.000000   0.000000
                                    CHANNELS 3 Zrotation Xrotation Yrotation
                                    JOINT LeftFinger42
                                    {
                                        OFFSET   1.858760   0.000000   0.000000
                                        CHANNELS 3 Zrotation Xrotation Yrotation
                                        End Site
                                        {
                                            OFFSET   1.818440   0.000000   0.000000
                                        }
                                    }
                                }
                            }
                        }
                    }
                }
            }
            JOINT RightCollar
            {
                OFFSET  -3.911900  19.017000  -0.467062
                CHANNELS 3 Zrotation Xrotation Yrotation
                JOINT RightShoulder
                {
                    OFFSET -10.383700   0.000015   0.000000
                    CHANNELS 3 Zrotation Xrotation Yrotation
                    JOINT RightElbow
                    {
                        OFFSET -26.662100   0.001341   0.000385
                        CHANNELS 3 Zrotation Xrotation Yrotation
                        JOINT RightWrist
                        {
                            OFFSET -28.869000   0.000025  -0.000080
                            CHANNELS 3 Zrotation Xrotation Yrotation
                            JOINT RightFinger0
                            {
                                OFFSET  -2.044650  -2.323490   3.252850
                                CHANNELS 3 Zrotation Xrotation Yrotation
                                JOINT RightFinger01
                                {
                                    OFFSET  -3.088130   0.000000   0.000000
                                    CHANNELS 3 Zrotation Xrotation Yrotation
                                    JOINT RightFinger02
                                    {
                                        OFFSET  -2.639460   0.000000   0.000000
                                        CHANNELS 3 Zrotation Xrotation Yrotation
                                        End Site
                                        {
                                            OFFSET  -2.582190   0.000000   0.000000
                                        }
                                    }
                                }
                            }
                            JOINT RightFinger1
                            {
                                OFFSET  -8.364480   0.000000   3.252850
                                CHANNELS 3 Zrotation Xrotation Yrotation
                                JOINT RightFinger11
                                {
                                    OFFSET  -4.646930   0.000000   0.000000
                                    CHANNELS 3 Zrotation Xrotation Yrotation
                                    JOINT RightFinger12
                                    {
                                        OFFSET  -2.323470   0.000000   0.000000
                                        CHANNELS 3 Zrotation Xrotation Yrotation
                                        End Site
                                        {
                                            OFFSET  -2.273050   0.000000   0.000000
                                        }
                                    }
                                }
                            }
                            JOINT RightFinger2
                            {
                                OFFSET  -8.364480   0.000000   1.078090
                                CHANNELS 3 Zrotation Xrotation Yrotation
                                JOINT RightFinger21
                                {
                                    OFFSET  -5.111610   0.000000   0.000000
                                    CHANNELS 3 Zrotation Xrotation Yrotation
                                    JOINT RightFinger22
                                    {
                                        OFFSET  -2.788160   0.000000   0.000000
                                        CHANNELS 3 Zrotation Xrotation Yrotation
                                        End Site
                                        {
                                            OFFSET  -2.727660   0.000000   0.000000
                                        }
                                    }
                                }
                            }
                            JOINT RightFinger3
                            {
                                OFFSET  -7.899780   0.000000  -1.078090
                                CHANNELS 3 Zrotation Xrotation Yrotation
                                JOINT RightFinger31
                                {
                                    OFFSET  -4.646920   0.000000   0.000000
                                    CHANNELS 3 Zrotation Xrotation Yrotation
                                    JOINT RightFinger32
                                    {
                                        OFFSET  -2.323470   0.000000   0.000000
                                        CHANNELS 3 Zrotation Xrotation Yrotation
                                        End Site
                                        {
                                            OFFSET  -2.273050   0.000000   0.000000
                                        }
                                    }
                                }
                            }
                            JOINT RightFinger4
                            {
                                OFFSET  -7.435090   0.000000  -3.252850
                                CHANNELS 3 Zrotation Xrotation Yrotation
                                JOINT RightFinger41
                                {
                                    OFFSET  -3.717550   0.000000   0.000000
                                    CHANNELS 3 Zrotation Xrotation Yrotation
                                    JOINT RightFinger42
                                    {
                                        OFFSET  -1.858770   0.000000   0.000000
                                        CHANNELS 3 Zrotation Xrotation Yrotation
                                        End Site
                                        {
                                            OFFSET  -1.818440   0.000000   0.000000
                                        }
                                    }
                                }
                            }
                        }
                    }
                }
            }
        }
    }
    JOINT LeftHip
    {
        OFFSET   9.783010   0.000000   0.000000
        CHANNELS 3 Zrotation Xrotation Yrotation
        JOINT LeftKnee
        {
            OFFSET   0.000070 -41.789100   0.000028
            CHANNELS 3 Zrotation Xrotation Yrotation
            JOINT LeftAnkle
            {
                OFFSET   0.000087 -41.133200  -0.000100
                CHANNELS 3 Zrotation Xrotation Yrotation
                JOINT LeftToe
                {
                    OFFSET   0.000000  -6.358960  14.674500
                    CHANNELS 3 Zrotation Xrotation Yrotation
                    End Site
                    {
                        OFFSET   0.000000   0.000000   3.913200
                    }
                }
            }
        }
    }
    JOINT RightHip
    {
        OFFSET  -9.783020   0.000000   0.000000
        CHANNELS 3 Zrotation Xrotation Yrotation
        JOINT RightKnee
        {
            OFFSET   0.000044 -41.789100  -0.000870
            CHANNELS 3 Zrotation Xrotation Yrotation
            JOINT RightAnkle
            {
                OFFSET  -0.000090 -41.133200  -0.000245
                CHANNELS 3 Zrotation Xrotation Yrotation
                JOINT RightToe
                {
                    OFFSET   0.000000  -6.358960  14.674500
                    CHANNELS 3 Zrotation Xrotation Yrotation
                    End Site
                    {
                        OFFSET   0.000000   0.000000   3.913200
                    }
                }
            }
        }
    }
}
MOTION
Frames: 4
Frame Time:   0.016667
 -5.913850  89.116900   1.204240  -0.003008  -7.862230   1.724210   0.425420   6.724930   0.322738   0.820969  13.452100   0.601062   0.581883  -1.077220   0.010069   0.956744  -2.183620  14.106100   7.129230   5.620570   6.805880 -83.667100 -45.467900 -20.758800   9.065800 -22.564200 -85.341600  36.247200 -14.363700   3.254010  47.603200  27.072700 -55.835100  -4.098520  -0.217001  -0.015504   2.950710  -0.108626  -0.020257 -16.276800  -0.460520   1.422740 -13.327200   0.007388  -0.079700  -9.329020   0.017091  -0.053257  -6.417000  -0.261162   3.695450  -6.394830   0.118572  -0.063034  -4.258970   0.084275  -0.030193  -4.782480  -0.546182   6.871880  -4.809540   0.023080  -0.089750  -3.203160   0.022619  -0.057390  -7.499780  -1.713930  12.841900 -11.531700   0.041446  -0.113661  -7.680140   0.043078  -0.068084  -6.924070   3.941530  -2.533120  82.926300 -42.658100  24.556900 -13.803900 -27.694200  72.041100 -47.950300 -14.652300   0.757405 -42.959300  30.007900  68.016900  10.254400  -0.011967  -0.003317   0.127172  -0.005995  -0.001580   9.636180   0.672632   3.938250   7.908490  -0.005004   0.009189   5.535940   0.001695   0.004888   9.947210  -0.733434  -4.113390   9.978200  -0.006629   0.028247   6.645470   0.004200   0.017705  13.699500  -2.798290 -11.273300  13.987100  -0.000945   0.044538   9.315460   0.005801   0.029373  15.699700  -4.204820 -14.580300  24.385100   0.006953   0.069035  16.240500   0.017529   0.042582   4.842620   9.292710  -1.021630   1.519800   5.190560  12.286200  -5.926200  -5.605150  -2.900050  -0.000000   0.000000  -0.000000   2.014650  11.916300 -10.540400   2.132450   1.390430 -13.501500  -1.398360  -5.751510   3.899110   0.000000   0.000000  -0.000000
 -5.860080  89.125200   1.198670   0.008315  -7.812940   1.819040   0.417132   6.712640   0.337515   0.803394  13.427500   0.631794   0.540919  -1.110570   0.009181   0.889763  -2.251250  14.034200   6.941800   5.511690   6.808530 -83.609000 -44.801700 -20.494200   9.432460 -22.621800 -85.129100  35.298400 -13.767000   2.180500  48.285200  27.881300 -56.739200  -5.285990  -0.217001  -0.026023   2.357000  -0.108632  -0.020264 -18.121600  -0.473952   1.361090 -14.841100   0.006971  -0.079514 -10.388700   0.016758  -0.053226  -8.389140  -0.808739   5.001270  -8.344680   0.118246  -0.062448  -5.557560   0.083936  -0.029854  -6.608420  -0.895200   7.374390  -6.689990   0.022703  -0.089332  -4.455530   0.022284  -0.057164  -8.824290  -2.014850  12.916800 -13.573700   0.040705  -0.113045  -9.040100   0.042416  -0.067833  -6.625090   3.780940  -2.426010  82.450900 -42.488800  23.870000 -14.022200 -27.348000  72.074700 -47.117800 -14.021200   1.277840 -42.517200  29.968700  68.409100  10.577700  -0.012220  -0.003388   0.288838  -0.006055  -0.001626  10.494800   0.815456   4.335820   8.618650  -0.007299   0.007834   6.033050   0.001700   0.004950  11.685700  -0.806715  -3.982160  11.721500  -0.006661   0.021290   7.806530   0.004168   0.013816  15.813400  -3.112480 -10.774400  16.120400  -0.000932   0.037908  10.736200   0.008038   0.031154  17.611400  -4.444550 -13.731200  27.252700   0.007087   0.060906  18.150300   0.016141   0.037290   4.803100   9.230290  -1.040660   1.520420   5.185180  12.243900  -5.898920  -5.588360  -2.917960  -0.000000   0.000000   0.000000   1.977830  11.869500 -10.552600   2.136730   1.393620 -13.576700  -1.366870  -5.748330   3.894320  -0.000000   0.000000   0.000000
 -5.799890  89.134400   1.188070   0.021323  -7.754130   1.931350   0.410663   6.697680   0.363543   0.786342  13.397700   0.685440   0.499563  -1.157020   0.008293   0.821492  -2.345610  13.860900   6.720480   5.357500   6.810690 -83.535600 -43.972100 -20.180900   9.933550 -22.650900 -84.791900  33.848700 -12.536400   0.800071  48.115600  28.736100 -58.139800  -8.405740  -0.216998  -0.031961   0.797133  -0.108633  -0.020265 -21.922200  -0.567897   1.352300 -17.947600   0.004055  -0.078211 -12.563300   0.014428  -0.053009 -12.187900  -1.849620   6.800630 -12.211800   0.115969  -0.058341  -8.133090   0.081562  -0.027478 -10.195000  -1.706400   8.342650 -10.295000   0.020058  -0.086407  -6.856460   0.019943  -0.055587 -11.688400  -2.879350  13.315500 -18.023100   0.035518  -0.108737 -12.003400   0.037778  -0.066078  -6.281810   3.627110  -2.183250  81.811700 -42.435800  22.972700 -14.246000 -26.871800  72.132300 -45.843100 -13.309700   1.974780 -42.019300  30.011900  68.936700  10.969900  -0.012472  -0.003600   0.484944  -0.006233  -0.001668  11.409600   1.005370   4.896010   9.377020  -0.010039   0.006790   6.563900   0.001706   0.005136  13.323500  -0.843977  -3.605920  13.360200  -0.006697   0.014333   8.897920   0.004135   0.009927  18.012000  -3.313670 -10.089000  18.319600  -0.000886   0.031278  12.200800   0.010212   0.031702  19.639200  -4.597340 -12.686100  30.256000   0.007513   0.050525  20.150500   0.014754   0.029750   4.760060   9.152930  -1.065090   1.521200   5.178870  12.190400  -5.867660  -5.572330  -2.935560   0.000000   0.000000   0.000000   1.938950  11.816900 -10.567400   2.140760   1.395080 -13.647100  -1.331530  -5.740500   3.868900  -0.000000   0.000000   0.000000
 -5.731310  89.143200   1.177560   0.036649  -7.694190   2.062490   0.411245   6.682780   0.393762   0.783261  13.368200   0.746294   0.462849  -1.213500   0.007393   0.760987  -2.460160  13.603200   6.466060   5.173400   6.939960 -83.560600 -42.978600 -19.946800  10.673200 -22.487500 -84.198000  31.673300 -10.910000  -0.745374  46.595300  29.658200 -60.372800 -14.947400  -0.084485  -0.017585  -2.473700  -0.041979  -0.016736 -29.268100  -1.005890   1.667140 -23.960600  -0.014215  -0.026674 -16.772400  -0.006023  -0.026111 -19.302600  -3.278870   8.548450 -19.557600   0.027106  -0.010874 -13.025400   0.017890  -0.006848 -17.064000  -3.181070   9.511690 -17.304200  -0.009198  -0.016917 -11.524600  -0.006301  -0.013665 -17.738300  -4.928560  14.549500 -27.531000  -0.025689  -0.013319 -18.335700  -0.017269  -0.026424  -5.947250   3.528440  -1.861870  81.005500 -42.545900  21.866500 -14.459300 -26.226100  72.195700 -43.979900 -12.567100   2.886430 -41.576800  30.313000  69.741700  11.352400  -0.028268  -0.007673   0.676159  -0.014192  -0.001699  12.054200   1.252770   5.799850   9.919310  -0.013069   0.012171   6.943500   0.001703   0.009288  14.250300  -0.710757  -2.768380  14.276800  -0.006766   0.021643   9.508400   0.004100   0.014955  19.731100  -3.251020  -9.070170  20.062600   0.000180   0.034247  13.361600   0.012239   0.032856  21.398300  -4.497050 -11.380900  32.798900   0.010417   0.047897  21.844000   0.017550   0.026119   4.715010   9.071200  -1.098070   1.521840   5.170240  12.120200  -5.834320  -5.559760  -2.946290   0.000000   0.000000   0.000000   1.900230  11.774300 -10.590300   2.141000   1.375890 -13.696800  -1.293110  -5.722010   3.810670  -0.000000   0.000000   0.000000
